<svg width="24" height="24" viewBox="0 0 24 24" fill="none" xmlns="http://www.w3.org/2000/svg">
<path d="M6.9375 6C6.83437 6 6.75 6.08437 6.75 6.1875V7.3125C6.75 7.41563 6.83437 7.5 6.9375 7.5H15.9375C16.0406 7.5 16.125 7.41563 16.125 7.3125V6.1875C16.125 6.08437 16.0406 6 15.9375 6H6.9375ZM11.4375 10.6875V9.5625C11.4375 9.45937 11.3531 9.375 11.25 9.375H6.9375C6.83437 9.375 6.75 9.45937 6.75 9.5625V10.6875C6.75 10.7906 6.83437 10.875 6.9375 10.875H11.25C11.3531 10.875 11.4375 10.7906 11.4375 10.6875ZM10.3125 19.9688H4.875V3.46875H18V11.5312C18 11.6344 18.0844 11.7188 18.1875 11.7188H19.5C19.6031 11.7188 19.6875 11.6344 19.6875 11.5312V2.53125C19.6875 2.11641 19.3523 1.78125 18.9375 1.78125H3.9375C3.52266 1.78125 3.1875 2.11641 3.1875 2.53125V20.9062C3.1875 21.3211 3.52266 21.6562 3.9375 21.6562H10.3125C10.4156 21.6562 10.5 21.5719 10.5 21.4688V20.1562C10.5 20.0531 10.4156 19.9688 10.3125 19.9688ZM12.7523 17.2594C12.7945 16.4508 13.132 15.6938 13.7086 15.1172C14.3227 14.5031 15.1617 14.1562 16.0312 14.1562C16.9078 14.1562 17.7328 14.4984 18.3539 15.1172C18.4289 15.1922 18.5016 15.2719 18.5695 15.3539L18.0281 15.7734C18.0002 15.795 17.979 15.8241 17.9668 15.8572C17.9547 15.8903 17.9521 15.9262 17.9595 15.9608C17.9668 15.9953 17.9837 16.027 18.0083 16.0524C18.0329 16.0777 18.0641 16.0955 18.0984 16.1039L20.2852 16.6312C20.4023 16.6594 20.5148 16.5703 20.5172 16.4508L20.5312 14.2148C20.5316 14.1796 20.522 14.145 20.5036 14.115C20.4852 14.085 20.4586 14.0607 20.4271 14.0451C20.3955 14.0294 20.3602 14.023 20.3252 14.0265C20.2901 14.03 20.2567 14.0433 20.2289 14.0648L19.7531 14.4352C18.8766 13.35 17.5336 12.6562 16.0312 12.6562C13.4555 12.6562 11.3531 14.693 11.25 17.243C11.2453 17.3484 11.332 17.4375 11.4375 17.4375H12.5648C12.6656 17.4375 12.7477 17.3602 12.7523 17.2594ZM20.625 17.4375H19.4977C19.3969 17.4375 19.3148 17.5148 19.3102 17.6156C19.268 18.4242 18.9305 19.1812 18.3539 19.7578C17.7398 20.3719 16.9008 20.7188 16.0312 20.7188C15.1547 20.7188 14.3297 20.3766 13.7086 19.7578C13.6336 19.6828 13.5609 19.6031 13.493 19.5211L14.0344 19.1016C14.0623 19.08 14.0835 19.0509 14.0957 19.0178C14.1078 18.9847 14.1104 18.9488 14.103 18.9142C14.0957 18.8797 14.0788 18.848 14.0542 18.8226C14.0296 18.7973 13.9984 18.7795 13.9641 18.7711L11.7773 18.2438C11.6602 18.2156 11.5477 18.3047 11.5453 18.4242L11.5312 20.6602C11.5309 20.6954 11.5405 20.73 11.5589 20.76C11.5773 20.79 11.6039 20.8143 11.6354 20.8299C11.667 20.8456 11.7023 20.852 11.7373 20.8485C11.7724 20.845 11.8058 20.8317 11.8336 20.8102L12.3094 20.4398C13.1859 21.525 14.5289 22.2188 16.0312 22.2188C18.607 22.2188 20.7094 20.182 20.8125 17.632C20.8172 17.5266 20.7305 17.4375 20.625 17.4375Z" fill="white"/>
</svg>
