<svg width="24" height="24" viewBox="0 0 24 24" fill="none" xmlns="http://www.w3.org/2000/svg">
<path d="M12 12C14.2091 12 16 10.2091 16 8C16 5.79086 14.2091 4 12 4C9.79086 4 8 5.79086 8 8C8 10.2091 9.79086 12 12 12Z" stroke="#98A0A4" stroke-width="2" stroke-linecap="round"/>
<path fill-rule="evenodd" clip-rule="evenodd" d="M13.327 15.076C12.889 15.026 12.445 15 12 15C10.08 15 8.19397 15.474 6.63097 16.373C5.06897 17.273 3.88097 18.57 3.33097 20.111C3.24979 20.3587 3.26856 20.6284 3.38328 20.8625C3.498 21.0966 3.69961 21.2766 3.94514 21.3642C4.19066 21.4519 4.4607 21.4401 4.69772 21.3316C4.93473 21.223 5.11997 21.0262 5.21397 20.783C5.57597 19.773 6.39698 18.816 7.62897 18.107C8.64297 17.523 9.86397 17.15 11.158 17.037C11.3226 16.5525 11.6083 16.1181 11.9879 15.7749C12.3674 15.4317 12.8284 15.1911 13.327 15.076Z" fill="#98A0A4"/>
<path d="M18 14V22M22 18H14" stroke="#98A0A4" stroke-width="2.5" stroke-linecap="round"/>
</svg>
