<svg width="25" height="24" viewBox="0 0 25 24" fill="none" xmlns="http://www.w3.org/2000/svg">
<path d="M18.5 10H13.5" stroke="white" stroke-opacity="0.81" stroke-width="1.5" stroke-linecap="round"/>
<path d="M10.5 3H17C17.464 3 17.697 3 17.892 3.026C18.5465 3.11232 19.1543 3.41211 19.6211 3.87893C20.0879 4.34574 20.3877 4.9535 20.474 5.608C20.5 5.803 20.5 6.036 20.5 6.5" stroke="white" stroke-opacity="0.81" stroke-width="1.5"/>
<path d="M2.5 6.95C2.5 6.067 2.5 5.626 2.57 5.258C2.71922 4.46784 3.10314 3.741 3.67165 3.17231C4.24017 2.60361 4.96689 2.21947 5.757 2.07C6.126 2 6.568 2 7.45 2C7.836 2 8.03 2 8.216 2.017C9.01705 2.09223 9.77679 2.40728 10.396 2.921C10.54 3.04 10.676 3.176 10.95 3.45L11.5 4C12.316 4.816 12.724 5.224 13.212 5.495C13.4802 5.64449 13.7648 5.7626 14.06 5.847C14.598 6 15.175 6 16.328 6H16.702C19.334 6 20.651 6 21.506 6.77C21.585 6.84 21.66 6.915 21.73 6.994C22.5 7.849 22.5 9.166 22.5 11.798V14C22.5 17.771 22.5 19.657 21.328 20.828C20.157 22 18.271 22 14.5 22H10.5C6.729 22 4.843 22 3.672 20.828C2.5 19.657 2.5 17.771 2.5 14V6.95Z" stroke="white" stroke-opacity="0.81" stroke-width="1.5"/>
</svg>
