<svg width="195" height="195" viewBox="0 0 195 195" fill="none" xmlns="http://www.w3.org/2000/svg">
<path d="M5.39982 15.5998L63.9998 184.9C66.4998 192.2 76.8998 192 79.1998 184.6L102.8 108C103.156 106.748 103.832 105.61 104.761 104.698C105.69 103.786 106.841 103.132 108.1 102.8L184.6 79.1998C192 76.8998 192.2 66.4998 184.9 63.9998L15.5998 5.39982C14.1774 4.8999 12.6426 4.81213 11.1724 5.14663C9.70226 5.48113 8.35655 6.22428 7.29041 7.29041C6.22428 8.35655 5.48113 9.70226 5.14663 11.1724C4.81213 12.6426 4.8999 14.1774 5.39982 15.5998Z" fill="#2EA7F4" stroke="#2EA7F4" stroke-width="8" stroke-linecap="round" stroke-linejoin="round"/>
</svg>
