<svg width="20" height="20" viewBox="0 0 20 20" fill="none" xmlns="http://www.w3.org/2000/svg">
<path d="M16.6062 13.6688C15.6965 11.5924 15.1531 9.37423 15 7.1125C14.8502 5.89188 14.2591 4.7682 13.3381 3.95329C12.4171 3.13838 11.2298 2.68852 9.99998 2.68852C8.7702 2.68852 7.5829 3.13838 6.66188 3.95329C5.74087 4.7682 5.14976 5.89188 4.99998 7.1125C4.84687 9.37423 4.30344 11.5924 3.39373 13.6688C3.32649 13.8127 3.29695 13.9714 3.30789 14.13C3.31882 14.2885 3.36987 14.4416 3.45623 14.575C3.53939 14.7066 3.65483 14.8147 3.79157 14.8891C3.92832 14.9635 4.08182 15.0017 4.23748 15H15.7625C15.9181 15.0017 16.0716 14.9635 16.2084 14.8891C16.3451 14.8147 16.4606 14.7066 16.5437 14.575C16.6301 14.4416 16.6811 14.2885 16.6921 14.13C16.703 13.9714 16.6735 13.8127 16.6062 13.6688ZM4.72498 13.75C5.57453 11.667 6.08923 9.46263 6.24998 7.21875C6.3272 6.27061 6.75839 5.38624 7.45782 4.74146C8.15725 4.09668 9.0737 3.73871 10.025 3.73871C10.9763 3.73871 11.8927 4.09668 12.5921 4.74146C13.2916 5.38624 13.7228 6.27061 13.8 7.21875C13.9448 9.45991 14.4426 11.6641 15.275 13.75H4.72498Z" fill="#BFBFBF"/>
<path d="M10 16.25C9.71938 16.2502 9.44229 16.1874 9.18917 16.0663C8.93605 15.9451 8.71335 15.7687 8.5375 15.55L7.5625 16.3313C7.85532 16.6962 8.22636 16.9908 8.64824 17.1932C9.07012 17.3956 9.53208 17.5007 10 17.5007C10.4679 17.5007 10.9299 17.3956 11.3518 17.1932C11.7736 16.9908 12.1447 16.6962 12.4375 16.3313L11.4625 15.55C11.2866 15.7687 11.0639 15.9451 10.8108 16.0663C10.5577 16.1874 10.2806 16.2502 10 16.25Z" fill="#BFBFBF"/>
</svg>
