<svg width="20" height="20" viewBox="0 0 20 20" fill="none" xmlns="http://www.w3.org/2000/svg">
<path d="M12.3438 17.3438H7.65625C7.57031 17.3438 7.5 17.4141 7.5 17.5V18.125C7.5 18.4707 7.7793 18.75 8.125 18.75H11.875C12.2207 18.75 12.5 18.4707 12.5 18.125V17.5C12.5 17.4141 12.4297 17.3438 12.3438 17.3438ZM10 1.25C6.46289 1.25 3.59375 4.11914 3.59375 7.65625C3.59375 10.0273 4.88281 12.0977 6.79688 13.2051V15.4688C6.79688 15.8145 7.07617 16.0938 7.42188 16.0938H12.5781C12.9238 16.0938 13.2031 15.8145 13.2031 15.4688V13.2051C15.1172 12.0977 16.4062 10.0273 16.4062 7.65625C16.4062 4.11914 13.5371 1.25 10 1.25ZM12.498 11.9883L11.7969 12.3945V14.6875H8.20312V12.3945L7.50195 11.9883C5.96484 11.0996 5 9.46289 5 7.65625C5 4.89453 7.23828 2.65625 10 2.65625C12.7617 2.65625 15 4.89453 15 7.65625C15 9.46289 14.0352 11.0996 12.498 11.9883Z" fill="#BFBFBF"/>
</svg>
