<svg width="19" height="19" viewBox="0 0 19 19" fill="none" xmlns="http://www.w3.org/2000/svg">
<path d="M16.6922 13.7795C16.1056 13.1923 15.4201 12.7131 14.6672 12.3638C15.729 11.5037 16.4063 10.1912 16.4063 8.7193C16.4063 6.12243 14.2407 3.99196 11.6438 4.0318C9.08678 4.07164 7.02662 6.15524 7.02662 8.7193C7.02662 10.1912 7.70631 11.5037 8.76568 12.3638C8.01265 12.7129 7.32714 13.1921 6.74068 13.7795C5.461 15.0615 4.73443 16.7537 4.68756 18.5584C4.68693 18.5834 4.69132 18.6083 4.70046 18.6316C4.70961 18.6548 4.72332 18.6761 4.74079 18.694C4.75827 18.7119 4.77915 18.7261 4.80221 18.7358C4.82527 18.7456 4.85004 18.7506 4.87506 18.7505H6.18756C6.28834 18.7505 6.37272 18.6709 6.37506 18.5701C6.41959 17.2107 6.97037 15.938 7.93834 14.9724C8.43367 14.4745 9.02284 14.0797 9.67176 13.8109C10.3207 13.5422 11.0164 13.4048 11.7188 13.4068C13.1462 13.4068 14.4891 13.9623 15.4993 14.9724C16.4649 15.938 17.0157 17.2107 17.0626 18.5701C17.0649 18.6709 17.1493 18.7505 17.2501 18.7505H18.5626C18.5876 18.7506 18.6124 18.7456 18.6354 18.7358C18.6585 18.7261 18.6794 18.7119 18.6968 18.694C18.7143 18.6761 18.728 18.6548 18.7372 18.6316C18.7463 18.6083 18.7507 18.5834 18.7501 18.5584C18.7032 16.7537 17.9766 15.0615 16.6922 13.7795ZM11.7188 11.7193C10.9172 11.7193 10.1626 11.4076 9.59772 10.8404C9.31425 10.5592 9.09033 10.2237 8.93933 9.85405C8.78832 9.48439 8.71333 9.0881 8.71881 8.68883C8.72584 7.92008 9.03287 7.17711 9.56959 6.62633C10.1321 6.04977 10.8844 5.72867 11.6883 5.7193C12.4829 5.71227 13.254 6.02164 13.8212 6.57711C14.4024 7.14664 14.7212 7.90836 14.7212 8.7193C14.7212 9.52086 14.4094 10.2732 13.8422 10.8404C13.564 11.12 13.233 11.3416 12.8685 11.4925C12.5041 11.6434 12.1133 11.7204 11.7188 11.7193ZM5.84772 9.33805C5.82662 9.13414 5.8149 8.92789 5.8149 8.7193C5.8149 8.34664 5.85006 7.98336 5.91568 7.62946C5.93209 7.54508 5.88756 7.45836 5.81021 7.42321C5.49147 7.28024 5.1985 7.08336 4.94537 6.83493C4.64711 6.54572 4.4124 6.19752 4.25623 5.81254C4.10006 5.42756 4.02585 5.01425 4.03834 4.59899C4.05943 3.84664 4.36178 3.1318 4.88912 2.59274C5.46803 1.99977 6.24615 1.67633 7.0735 1.68571C7.82115 1.69274 8.54303 1.98102 9.08912 2.49196C9.27428 2.66539 9.43365 2.85758 9.56725 3.06383C9.61412 3.13649 9.70553 3.16696 9.78522 3.13883C10.1977 2.99586 10.6337 2.89508 11.0813 2.84821C11.2126 2.83414 11.2876 2.69352 11.229 2.57633C10.4672 1.0693 8.911 0.0286749 7.111 0.000549931C4.51178 -0.0392938 2.34615 2.09118 2.34615 4.68571C2.34615 6.15758 3.0235 7.47008 4.08522 8.33024C3.3399 8.67477 2.65318 9.15055 2.05787 9.74586C0.773496 11.0279 0.0469336 12.7201 5.86078e-05 14.5271C-0.000566951 14.5521 0.00382061 14.577 0.0129629 14.6003C0.0221052 14.6236 0.0358171 14.6448 0.0532908 14.6627C0.0707645 14.6806 0.0916465 14.6949 0.114706 14.7046C0.137766 14.7143 0.162536 14.7193 0.187559 14.7193H1.5024C1.60318 14.7193 1.68756 14.6396 1.6899 14.5388C1.73443 13.1795 2.28522 11.9068 3.25318 10.9412C3.94225 10.2521 4.786 9.77399 5.70709 9.54196C5.7985 9.51852 5.85943 9.4318 5.84772 9.33805Z" fill="white"/>
</svg>
