<svg width="180" height="73" viewBox="0 0 180 73" fill="none" xmlns="http://www.w3.org/2000/svg">
<path d="M46.5 18.7725C46.5 21.2725 45.4531 23.4495 43.3594 25.3037C41.2656 27.1579 38.474 28.085 34.9844 28.085C31.0573 28.085 27.7812 26.7933 25.1562 24.21C22.5417 21.6162 21.2344 18.1475 21.2344 13.8037C21.2344 9.83496 22.5677 6.63184 25.2344 4.19434C27.9115 1.74642 31.2604 0.522461 35.2812 0.522461C36.9792 0.522461 38.4375 0.808919 39.6562 1.38184C40.875 1.94434 41.9531 2.70475 42.8906 3.66309V2.03809C42.8906 1.64225 43.0312 1.35579 43.3125 1.17871C43.6042 1.00163 43.9427 0.913086 44.3281 0.913086C44.6719 0.913086 44.974 1.01725 45.2344 1.22559C45.5052 1.4235 45.6406 1.70475 45.6406 2.06934V7.91309C45.6406 8.27767 45.5052 8.56413 45.2344 8.77246C44.974 8.97038 44.6719 9.06934 44.3281 9.06934C43.974 9.06934 43.7135 8.93392 43.5469 8.66309C43.3802 8.38184 43.2031 8.111 43.0156 7.85059C42.2552 6.60059 41.2604 5.55892 40.0312 4.72559C38.8125 3.89225 37.2292 3.47559 35.2812 3.47559C32.1979 3.47559 29.7708 4.47038 28 6.45996C26.2292 8.43913 25.3438 10.9443 25.3438 13.9756C25.3438 17.3923 26.2083 20.0902 27.9375 22.0693C29.6667 24.0381 32.1146 25.0225 35.2812 25.0225C37.4792 25.0225 39.2604 24.4287 40.625 23.2412C41.9896 22.0433 42.8646 20.4548 43.25 18.4756C43.3229 18.1006 43.5156 17.8245 43.8281 17.6475C44.151 17.46 44.4896 17.3662 44.8438 17.3662C45.25 17.3662 45.625 17.486 45.9688 17.7256C46.3229 17.9652 46.5 18.3141 46.5 18.7725ZM58.9844 11.7881C57.0052 11.7881 55.4688 12.4287 54.375 13.71C53.2917 14.9912 52.75 16.6214 52.75 18.6006C52.75 20.5902 53.2917 22.2256 54.375 23.5068C55.4688 24.7881 57.0052 25.4287 58.9844 25.4287C60.9115 25.4287 62.401 24.7777 63.4531 23.4756C64.5052 22.1735 65.0312 20.5485 65.0312 18.6006C65.0312 16.6527 64.5052 15.0329 63.4531 13.7412C62.401 12.4391 60.9115 11.7881 58.9844 11.7881ZM58.9844 28.085C56.099 28.085 53.7604 27.2256 51.9688 25.5068C50.1771 23.7881 49.2812 21.486 49.2812 18.6006C49.2812 15.7048 50.1771 13.4027 51.9688 11.6943C53.7708 9.986 56.1094 9.13184 58.9844 9.13184C61.8177 9.13184 64.1094 10.0016 65.8594 11.7412C67.6094 13.4704 68.4844 15.7568 68.4844 18.6006C68.4844 21.4443 67.6094 23.736 65.8594 25.4756C64.1094 27.2152 61.8177 28.085 58.9844 28.085ZM83.1719 11.7881C81.776 11.7881 80.4479 12.2516 79.1875 13.1787C77.9375 14.0954 77.3125 15.2516 77.3125 16.6475V24.9443H79.5938C79.9896 24.9443 80.2708 25.0902 80.4375 25.3818C80.6146 25.6631 80.7031 25.9964 80.7031 26.3818C80.7031 26.7256 80.6042 27.0329 80.4062 27.3037C80.2083 27.5641 79.9271 27.6943 79.5625 27.6943H72.2656C71.8281 27.6943 71.5052 27.5693 71.2969 27.3193C71.0885 27.0693 70.9844 26.7464 70.9844 26.3506C70.9844 25.9652 71.0781 25.637 71.2656 25.3662C71.4635 25.085 71.7656 24.9443 72.1719 24.9443H74.1094V12.3975L71.875 12.9443C71.8542 12.9548 71.8229 12.9652 71.7812 12.9756C71.75 12.9756 71.7083 12.9756 71.6562 12.9756C71.3438 12.9756 71.0521 12.8506 70.7812 12.6006C70.5104 12.3402 70.375 12.0485 70.375 11.7256C70.375 11.3714 70.4479 11.0902 70.5938 10.8818C70.75 10.6631 70.974 10.5068 71.2656 10.4131L75.625 9.16309C75.6667 9.16309 75.6927 9.15788 75.7031 9.14746C75.7135 9.13704 75.7396 9.13184 75.7812 9.13184H75.875C76.0938 9.13184 76.2812 9.19954 76.4375 9.33496C76.5938 9.45996 76.6719 9.63704 76.6719 9.86621L77 12.8193C77.5312 11.861 78.4219 11.0068 79.6719 10.2568C80.9323 9.50684 82.2917 9.13184 83.75 9.13184C85.6979 9.13184 87.2448 9.70475 88.3906 10.8506C89.5365 11.9964 90.1094 13.5485 90.1094 15.5068V24.9443H92.0625C92.4583 24.9443 92.7448 25.0902 92.9219 25.3818C93.099 25.6631 93.1875 25.9964 93.1875 26.3818C93.1875 26.7256 93.0833 27.0329 92.875 27.3037C92.6771 27.5641 92.3958 27.6943 92.0312 27.6943H84.4219C83.9844 27.6943 83.6615 27.5693 83.4531 27.3193C83.2448 27.0693 83.1406 26.7464 83.1406 26.3506C83.1406 25.9652 83.2344 25.637 83.4219 25.3662C83.6198 25.085 83.9219 24.9443 84.3281 24.9443H86.9531V15.7881C86.9531 14.5485 86.6354 13.5745 86 12.8662C85.375 12.1475 84.4323 11.7881 83.1719 11.7881ZM96.1719 14.2412C96.1719 12.2308 96.8906 10.8766 98.3281 10.1787C99.7656 9.48079 101.302 9.13184 102.938 9.13184C104 9.13184 105.052 9.35579 106.094 9.80371C107.135 10.2412 107.849 10.8037 108.234 11.4912L108.25 10.1631C108.25 9.84017 108.365 9.58496 108.594 9.39746C108.823 9.19954 109.099 9.10059 109.422 9.10059C109.88 9.10059 110.224 9.20475 110.453 9.41309C110.682 9.62142 110.797 9.9235 110.797 10.3193L110.734 14.835C110.693 15.1891 110.557 15.46 110.328 15.6475C110.099 15.8245 109.807 15.9131 109.453 15.9131C109.109 15.9131 108.88 15.8089 108.766 15.6006C108.651 15.3923 108.542 15.0954 108.438 14.71C108.083 13.6162 107.349 12.7777 106.234 12.1943C105.13 11.611 104.021 11.3193 102.906 11.3193C101.948 11.3193 101.109 11.5068 100.391 11.8818C99.6719 12.2568 99.3125 12.8245 99.3125 13.585C99.3125 14.2412 99.526 14.7516 99.9531 15.1162C100.38 15.4808 101.073 15.7829 102.031 16.0225L106.031 17.335C107.427 17.8037 108.693 18.3975 109.828 19.1162C110.964 19.835 111.531 21.0745 111.531 22.835C111.531 24.5641 110.938 25.8766 109.75 26.7725C108.573 27.6683 106.917 28.1162 104.781 28.1162C103.667 28.1162 102.443 27.9391 101.109 27.585C99.776 27.2204 98.8125 26.71 98.2188 26.0537C98.2188 26.7412 98.0938 27.1891 97.8438 27.3975C97.6042 27.5954 97.3073 27.6943 96.9531 27.6943C96.5573 27.6943 96.224 27.6058 95.9531 27.4287C95.6927 27.2516 95.5625 26.9548 95.5625 26.5381V21.2568C95.5729 20.9339 95.6979 20.6891 95.9375 20.5225C96.1771 20.3558 96.4479 20.2725 96.75 20.2725C97.2083 20.2725 97.526 20.3818 97.7031 20.6006C97.8906 20.8089 98.0312 21.1162 98.125 21.5225C98.4479 22.9391 99.1927 24.0016 100.359 24.71C101.526 25.4183 102.943 25.7725 104.609 25.7725C105.62 25.7725 106.484 25.5798 107.203 25.1943C107.932 24.8089 108.297 24.1787 108.297 23.3037C108.297 22.4287 108.089 21.7881 107.672 21.3818C107.255 20.9756 106.516 20.611 105.453 20.2881L101.203 18.96C99.8802 18.5433 98.7083 17.9912 97.6875 17.3037C96.6771 16.6162 96.1719 15.5954 96.1719 14.2412ZM117.422 18.96C117.422 21.0016 118.057 22.5589 119.328 23.6318C120.609 24.6943 122.182 25.2256 124.047 25.2256C125.37 25.2256 126.406 24.9808 127.156 24.4912C127.917 23.9912 128.641 23.4235 129.328 22.7881C129.484 22.6527 129.651 22.5537 129.828 22.4912C130.005 22.4183 130.182 22.3818 130.359 22.3818C130.776 22.3818 131.13 22.512 131.422 22.7725C131.714 23.0225 131.859 23.361 131.859 23.7881C131.859 25.1214 130.891 26.1735 128.953 26.9443C127.026 27.7048 125.349 28.085 123.922 28.085C121.068 28.085 118.714 27.2412 116.859 25.5537C115.016 23.8558 114.094 21.5745 114.094 18.71C114.094 15.8766 114.943 13.5745 116.641 11.8037C118.339 10.0225 120.641 9.13184 123.547 9.13184C125.63 9.13184 127.531 9.85579 129.25 11.3037C130.969 12.7412 131.828 14.6006 131.828 16.8818C131.828 17.6631 131.583 18.1318 131.094 18.2881C130.615 18.4443 130.005 18.5589 129.266 18.6318L117.422 18.96ZM127.906 15.8818C127.906 14.3923 127.448 13.3402 126.531 12.7256C125.625 12.1006 124.63 11.7881 123.547 11.7881C121.714 11.7881 120.255 12.2412 119.172 13.1475C118.099 14.0537 117.495 15.2568 117.359 16.7568L126.75 16.5537C127.042 16.5433 127.307 16.4912 127.547 16.3975C127.786 16.2933 127.906 16.1214 127.906 15.8818ZM139.781 5.39746C139.125 5.39746 138.562 5.16829 138.094 4.70996C137.635 4.24121 137.406 3.67871 137.406 3.02246C137.406 2.36621 137.635 1.80892 138.094 1.35059C138.562 0.881836 139.125 0.647461 139.781 0.647461C140.438 0.647461 140.995 0.881836 141.453 1.35059C141.911 1.80892 142.141 2.36621 142.141 3.02246C142.141 3.67871 141.911 4.24121 141.453 4.70996C140.995 5.16829 140.438 5.39746 139.781 5.39746ZM134.969 26.3975C134.969 26.012 135.062 25.6839 135.25 25.4131C135.448 25.1318 135.75 24.9912 136.156 24.9912H138.297V12.335L136.062 12.9443C136.042 12.9548 136.01 12.9652 135.969 12.9756C135.938 12.9756 135.896 12.9756 135.844 12.9756C135.531 12.9756 135.24 12.8506 134.969 12.6006C134.698 12.3402 134.562 12.0485 134.562 11.7256C134.562 11.3923 134.635 11.111 134.781 10.8818C134.938 10.6423 135.161 10.486 135.453 10.4131L140.453 9.16309C140.484 9.15267 140.521 9.14746 140.562 9.14746C140.604 9.13704 140.651 9.13184 140.703 9.13184C140.932 9.13184 141.12 9.19954 141.266 9.33496C141.422 9.45996 141.5 9.63704 141.5 9.86621V24.9912H143.906C144.302 24.9912 144.589 25.137 144.766 25.4287C144.943 25.71 145.031 26.0433 145.031 26.4287C145.031 26.7725 144.927 27.0693 144.719 27.3193C144.521 27.5693 144.24 27.6943 143.875 27.6943H136.25C135.812 27.6943 135.49 27.5798 135.281 27.3506C135.073 27.111 134.969 26.7933 134.969 26.3975ZM153.766 0.584961C153.984 0.584961 154.177 0.657878 154.344 0.803711C154.51 0.939128 154.594 1.12142 154.594 1.35059V24.9443H158.406C158.802 24.9443 159.089 25.0902 159.266 25.3818C159.443 25.6631 159.531 25.9964 159.531 26.3818C159.531 26.7256 159.427 27.0329 159.219 27.3037C159.021 27.5641 158.74 27.6943 158.375 27.6943H147.938C147.5 27.6943 147.177 27.5693 146.969 27.3193C146.76 27.0693 146.656 26.7464 146.656 26.3506C146.656 25.9652 146.75 25.637 146.938 25.3662C147.135 25.085 147.438 24.9443 147.844 24.9443H151.391V3.94434L147.719 4.91309C147.677 4.91309 147.651 4.91829 147.641 4.92871C147.63 4.93913 147.604 4.94434 147.562 4.94434C147.24 4.94434 146.948 4.80371 146.688 4.52246C146.438 4.23079 146.312 3.9235 146.312 3.60059C146.312 3.15267 146.427 2.861 146.656 2.72559C146.896 2.57975 147.188 2.45475 147.531 2.35059L153.547 0.616211C153.568 0.605794 153.594 0.600586 153.625 0.600586C153.667 0.590169 153.714 0.584961 153.766 0.584961ZM4.03125 54.6006C4.03125 56.4131 4.48958 58.0068 5.40625 59.3818C6.33333 60.7464 7.69792 61.4287 9.5 61.4287C10.7396 61.4287 11.8125 61.1579 12.7188 60.6162C13.625 60.0745 14.3542 59.4131 14.9062 58.6318V49.9287C14.25 49.262 13.4583 48.7412 12.5312 48.3662C11.6146 47.9808 10.5521 47.7881 9.34375 47.7881C7.58333 47.7881 6.25521 48.486 5.35938 49.8818C4.47396 51.2673 4.03125 52.8402 4.03125 54.6006ZM0.5625 54.6006C0.5625 51.9443 1.33854 49.7048 2.89062 47.8818C4.45312 46.0485 6.55729 45.1318 9.20312 45.1318C10.4427 45.1318 11.5156 45.3298 12.4219 45.7256C13.3281 46.1214 14.1562 46.6162 14.9062 47.21V39.8818L11.2188 40.8506C11.1771 40.8506 11.151 40.8558 11.1406 40.8662C11.1302 40.8766 11.1042 40.8818 11.0625 40.8818C10.7396 40.8818 10.4479 40.7412 10.1875 40.46C9.9375 40.1683 9.8125 39.861 9.8125 39.5381C9.8125 39.0902 9.92708 38.7985 10.1562 38.6631C10.3958 38.5173 10.6875 38.3923 11.0312 38.2881L17.0469 36.5537C17.0677 36.5433 17.099 36.5381 17.1406 36.5381C17.1823 36.5277 17.2292 36.5225 17.2812 36.5225C17.5 36.5225 17.6927 36.5954 17.8594 36.7412C18.026 36.8766 18.1094 37.0589 18.1094 37.2881V60.9443L20.375 60.6162C20.4271 60.6058 20.4896 60.6006 20.5625 60.6006C20.6354 60.5902 20.7135 60.585 20.7969 60.585C21.2135 60.585 21.5469 60.6891 21.7969 60.8975C22.0469 61.0954 22.1719 61.3766 22.1719 61.7412C22.1719 62.585 21.7135 63.0745 20.7969 63.21C19.8906 63.335 19.099 63.4339 18.4219 63.5068C18.0156 63.5693 17.5573 63.6423 17.0469 63.7256C16.5469 63.8089 16.1302 63.8506 15.7969 63.8506C15.4323 63.8506 15.1927 63.71 15.0781 63.4287C14.9635 63.1475 14.9062 62.8298 14.9062 62.4756V61.3506C14.3125 62.0693 13.5312 62.7048 12.5625 63.2568C11.5938 63.8089 10.5 64.085 9.28125 64.085C6.54167 64.085 4.40104 63.1891 2.85938 61.3975C1.32812 59.5954 0.5625 57.3298 0.5625 54.6006ZM29.2812 41.3975C28.625 41.3975 28.0625 41.1683 27.5938 40.71C27.1354 40.2412 26.9062 39.6787 26.9062 39.0225C26.9062 38.3662 27.1354 37.8089 27.5938 37.3506C28.0625 36.8818 28.625 36.6475 29.2812 36.6475C29.9375 36.6475 30.4948 36.8818 30.9531 37.3506C31.4115 37.8089 31.6406 38.3662 31.6406 39.0225C31.6406 39.6787 31.4115 40.2412 30.9531 40.71C30.4948 41.1683 29.9375 41.3975 29.2812 41.3975ZM24.4688 62.3975C24.4688 62.012 24.5625 61.6839 24.75 61.4131C24.9479 61.1318 25.25 60.9912 25.6562 60.9912H27.7969V48.335L25.5625 48.9443C25.5417 48.9548 25.5104 48.9652 25.4688 48.9756C25.4375 48.9756 25.3958 48.9756 25.3438 48.9756C25.0312 48.9756 24.7396 48.8506 24.4688 48.6006C24.1979 48.3402 24.0625 48.0485 24.0625 47.7256C24.0625 47.3923 24.1354 47.111 24.2812 46.8818C24.4375 46.6423 24.6615 46.486 24.9531 46.4131L29.9531 45.1631C29.9844 45.1527 30.0208 45.1475 30.0625 45.1475C30.1042 45.137 30.151 45.1318 30.2031 45.1318C30.4323 45.1318 30.6198 45.1995 30.7656 45.335C30.9219 45.46 31 45.637 31 45.8662V60.9912H33.4062C33.8021 60.9912 34.0885 61.137 34.2656 61.4287C34.4427 61.71 34.5312 62.0433 34.5312 62.4287C34.5312 62.7725 34.4271 63.0693 34.2188 63.3193C34.0208 63.5693 33.7396 63.6943 33.375 63.6943H25.75C25.3125 63.6943 24.9896 63.5798 24.7812 63.3506C24.5729 63.111 24.4688 62.7933 24.4688 62.3975ZM37.6406 50.2412C37.6406 48.2308 38.3594 46.8766 39.7969 46.1787C41.2344 45.4808 42.7708 45.1318 44.4062 45.1318C45.4688 45.1318 46.5208 45.3558 47.5625 45.8037C48.6042 46.2412 49.3177 46.8037 49.7031 47.4912L49.7188 46.1631C49.7188 45.8402 49.8333 45.585 50.0625 45.3975C50.2917 45.1995 50.5677 45.1006 50.8906 45.1006C51.349 45.1006 51.6927 45.2048 51.9219 45.4131C52.151 45.6214 52.2656 45.9235 52.2656 46.3193L52.2031 50.835C52.1615 51.1891 52.026 51.46 51.7969 51.6475C51.5677 51.8245 51.276 51.9131 50.9219 51.9131C50.5781 51.9131 50.349 51.8089 50.2344 51.6006C50.1198 51.3923 50.0104 51.0954 49.9062 50.71C49.5521 49.6162 48.8177 48.7777 47.7031 48.1943C46.599 47.611 45.4896 47.3193 44.375 47.3193C43.4167 47.3193 42.5781 47.5068 41.8594 47.8818C41.1406 48.2568 40.7812 48.8245 40.7812 49.585C40.7812 50.2412 40.9948 50.7516 41.4219 51.1162C41.849 51.4808 42.5417 51.7829 43.5 52.0225L47.5 53.335C48.8958 53.8037 50.1615 54.3975 51.2969 55.1162C52.4323 55.835 53 57.0745 53 58.835C53 60.5641 52.4062 61.8766 51.2188 62.7725C50.0417 63.6683 48.3854 64.1162 46.25 64.1162C45.1354 64.1162 43.9115 63.9391 42.5781 63.585C41.2448 63.2204 40.2812 62.71 39.6875 62.0537C39.6875 62.7412 39.5625 63.1891 39.3125 63.3975C39.0729 63.5954 38.776 63.6943 38.4219 63.6943C38.026 63.6943 37.6927 63.6058 37.4219 63.4287C37.1615 63.2516 37.0312 62.9548 37.0312 62.5381V57.2568C37.0417 56.9339 37.1667 56.6891 37.4062 56.5225C37.6458 56.3558 37.9167 56.2725 38.2188 56.2725C38.6771 56.2725 38.9948 56.3818 39.1719 56.6006C39.3594 56.8089 39.5 57.1162 39.5938 57.5225C39.9167 58.9391 40.6615 60.0016 41.8281 60.71C42.9948 61.4183 44.4115 61.7725 46.0781 61.7725C47.0885 61.7725 47.9531 61.5798 48.6719 61.1943C49.401 60.8089 49.7656 60.1787 49.7656 59.3037C49.7656 58.4287 49.5573 57.7881 49.1406 57.3818C48.724 56.9756 47.9844 56.611 46.9219 56.2881L42.6719 54.96C41.349 54.5433 40.1771 53.9912 39.1562 53.3037C38.1458 52.6162 37.6406 51.5954 37.6406 50.2412ZM66 45.1318C67.5729 45.1318 69.0833 45.4548 70.5312 46.1006C71.9896 46.736 72.7188 48.0277 72.7188 49.9756C72.7188 50.5902 72.599 51.111 72.3594 51.5381C72.1198 51.9548 71.7344 52.1631 71.2031 52.1631C70.4219 52.1631 69.9219 51.71 69.7031 50.8037C69.4844 49.887 69.276 49.012 69.0781 48.1787C68.5677 48.0433 68.0625 47.9443 67.5625 47.8818C67.0729 47.8193 66.5885 47.7881 66.1094 47.7881C64.099 47.7881 62.4167 48.3766 61.0625 49.5537C59.7083 50.7204 59.0312 52.3298 59.0312 54.3818C59.0312 56.6006 59.6927 58.2568 61.0156 59.3506C62.349 60.4339 63.8646 60.9756 65.5625 60.9756C66.4479 60.9756 67.3385 60.8089 68.2344 60.4756C69.1302 60.1318 69.9479 59.6318 70.6875 58.9756C70.8333 58.8506 70.9896 58.7516 71.1562 58.6787C71.3229 58.6058 71.4948 58.5693 71.6719 58.5693C72.099 58.5693 72.4531 58.6787 72.7344 58.8975C73.026 59.1058 73.1719 59.4027 73.1719 59.7881C73.1719 61.1214 72.276 62.1735 70.4844 62.9443C68.6927 63.7048 67.1146 64.085 65.75 64.085C62.7604 64.085 60.3125 63.2256 58.4062 61.5068C56.5104 59.7777 55.5625 57.4027 55.5625 54.3818C55.5625 51.4235 56.599 49.1423 58.6719 47.5381C60.7552 45.9339 63.1979 45.1318 66 45.1318ZM80.4375 41.3975C79.7812 41.3975 79.2188 41.1683 78.75 40.71C78.2917 40.2412 78.0625 39.6787 78.0625 39.0225C78.0625 38.3662 78.2917 37.8089 78.75 37.3506C79.2188 36.8818 79.7812 36.6475 80.4375 36.6475C81.0938 36.6475 81.651 36.8818 82.1094 37.3506C82.5677 37.8089 82.7969 38.3662 82.7969 39.0225C82.7969 39.6787 82.5677 40.2412 82.1094 40.71C81.651 41.1683 81.0938 41.3975 80.4375 41.3975ZM75.625 62.3975C75.625 62.012 75.7188 61.6839 75.9062 61.4131C76.1042 61.1318 76.4062 60.9912 76.8125 60.9912H78.9531V48.335L76.7188 48.9443C76.6979 48.9548 76.6667 48.9652 76.625 48.9756C76.5938 48.9756 76.5521 48.9756 76.5 48.9756C76.1875 48.9756 75.8958 48.8506 75.625 48.6006C75.3542 48.3402 75.2188 48.0485 75.2188 47.7256C75.2188 47.3923 75.2917 47.111 75.4375 46.8818C75.5938 46.6423 75.8177 46.486 76.1094 46.4131L81.1094 45.1631C81.1406 45.1527 81.1771 45.1475 81.2188 45.1475C81.2604 45.137 81.3073 45.1318 81.3594 45.1318C81.5885 45.1318 81.776 45.1995 81.9219 45.335C82.0781 45.46 82.1562 45.637 82.1562 45.8662V60.9912H84.5625C84.9583 60.9912 85.2448 61.137 85.4219 61.4287C85.599 61.71 85.6875 62.0433 85.6875 62.4287C85.6875 62.7725 85.5833 63.0693 85.375 63.3193C85.1771 63.5693 84.8958 63.6943 84.5312 63.6943H76.9062C76.4688 63.6943 76.1458 63.5798 75.9375 63.3506C75.7292 63.111 75.625 62.7933 75.625 62.3975ZM104.875 54.6006C104.875 52.7568 104.411 51.1631 103.484 49.8193C102.568 48.4652 101.208 47.7881 99.4062 47.7881C98.0312 47.7881 96.8438 48.0485 95.8438 48.5693C94.8542 49.0902 94.0469 49.7568 93.4219 50.5693V59.2725C94.0781 59.9287 94.8958 60.4548 95.875 60.8506C96.8646 61.236 98.0104 61.4287 99.3125 61.4287C101.135 61.4287 102.516 60.7516 103.453 59.3975C104.401 58.0329 104.875 56.4339 104.875 54.6006ZM108.328 54.6006C108.328 57.3714 107.51 59.6475 105.875 61.4287C104.24 63.1995 102.052 64.085 99.3125 64.085C98.0312 64.085 96.9115 63.8923 95.9531 63.5068C95.0052 63.1214 94.1615 62.6162 93.4219 61.9912V69.9287H96.5781C96.974 69.9287 97.2604 70.0745 97.4375 70.3662C97.6146 70.6579 97.7031 70.9964 97.7031 71.3818C97.7031 71.7256 97.599 72.0277 97.3906 72.2881C97.1927 72.5485 96.9115 72.6787 96.5469 72.6787H88.3594C87.9219 72.6787 87.599 72.5537 87.3906 72.3037C87.1823 72.0537 87.0781 71.7308 87.0781 71.335C87.0781 70.9495 87.1719 70.6162 87.3594 70.335C87.5573 70.0641 87.8594 69.9287 88.2656 69.9287H90.2188V48.3975L87.9844 48.9443C87.9635 48.9548 87.9323 48.9652 87.8906 48.9756C87.849 48.9756 87.8021 48.9756 87.75 48.9756C87.4375 48.9756 87.1458 48.8506 86.875 48.6006C86.6042 48.3402 86.4688 48.0485 86.4688 47.7256C86.4688 47.3714 86.5469 47.0902 86.7031 46.8818C86.8594 46.6631 87.0833 46.5068 87.375 46.4131L91.7188 45.1631C91.7604 45.1631 91.7865 45.1579 91.7969 45.1475C91.8073 45.137 91.8333 45.1318 91.875 45.1318H91.9844C92.2031 45.1318 92.3906 45.1995 92.5469 45.335C92.7031 45.46 92.7812 45.637 92.7812 45.8662L93.0938 48.8193C93.5938 47.7568 94.4271 46.8766 95.5938 46.1787C96.7604 45.4808 98.1042 45.1318 99.625 45.1318C102.354 45.1318 104.484 46.0277 106.016 47.8193C107.557 49.6006 108.328 51.861 108.328 54.6006ZM117.516 36.585C117.734 36.585 117.927 36.6579 118.094 36.8037C118.26 36.9391 118.344 37.1214 118.344 37.3506V60.9443H122.156C122.552 60.9443 122.839 61.0902 123.016 61.3818C123.193 61.6631 123.281 61.9964 123.281 62.3818C123.281 62.7256 123.177 63.0329 122.969 63.3037C122.771 63.5641 122.49 63.6943 122.125 63.6943H111.688C111.25 63.6943 110.927 63.5693 110.719 63.3193C110.51 63.0693 110.406 62.7464 110.406 62.3506C110.406 61.9652 110.5 61.637 110.688 61.3662C110.885 61.085 111.188 60.9443 111.594 60.9443H115.141V39.9443L111.469 40.9131C111.427 40.9131 111.401 40.9183 111.391 40.9287C111.38 40.9391 111.354 40.9443 111.312 40.9443C110.99 40.9443 110.698 40.8037 110.438 40.5225C110.188 40.2308 110.062 39.9235 110.062 39.6006C110.062 39.1527 110.177 38.861 110.406 38.7256C110.646 38.5798 110.938 38.4548 111.281 38.3506L117.297 36.6162C117.318 36.6058 117.344 36.6006 117.375 36.6006C117.417 36.5902 117.464 36.585 117.516 36.585ZM130.125 41.3975C129.469 41.3975 128.906 41.1683 128.438 40.71C127.979 40.2412 127.75 39.6787 127.75 39.0225C127.75 38.3662 127.979 37.8089 128.438 37.3506C128.906 36.8818 129.469 36.6475 130.125 36.6475C130.781 36.6475 131.339 36.8818 131.797 37.3506C132.255 37.8089 132.484 38.3662 132.484 39.0225C132.484 39.6787 132.255 40.2412 131.797 40.71C131.339 41.1683 130.781 41.3975 130.125 41.3975ZM125.312 62.3975C125.312 62.012 125.406 61.6839 125.594 61.4131C125.792 61.1318 126.094 60.9912 126.5 60.9912H128.641V48.335L126.406 48.9443C126.385 48.9548 126.354 48.9652 126.312 48.9756C126.281 48.9756 126.24 48.9756 126.188 48.9756C125.875 48.9756 125.583 48.8506 125.312 48.6006C125.042 48.3402 124.906 48.0485 124.906 47.7256C124.906 47.3923 124.979 47.111 125.125 46.8818C125.281 46.6423 125.505 46.486 125.797 46.4131L130.797 45.1631C130.828 45.1527 130.865 45.1475 130.906 45.1475C130.948 45.137 130.995 45.1318 131.047 45.1318C131.276 45.1318 131.464 45.1995 131.609 45.335C131.766 45.46 131.844 45.637 131.844 45.8662V60.9912H134.25C134.646 60.9912 134.932 61.137 135.109 61.4287C135.286 61.71 135.375 62.0433 135.375 62.4287C135.375 62.7725 135.271 63.0693 135.062 63.3193C134.865 63.5693 134.583 63.6943 134.219 63.6943H126.594C126.156 63.6943 125.833 63.5798 125.625 63.3506C125.417 63.111 125.312 62.7933 125.312 62.3975ZM149.609 47.7881C148.214 47.7881 146.885 48.2516 145.625 49.1787C144.375 50.0954 143.75 51.2516 143.75 52.6475V60.9443H146.031C146.427 60.9443 146.708 61.0902 146.875 61.3818C147.052 61.6631 147.141 61.9964 147.141 62.3818C147.141 62.7256 147.042 63.0329 146.844 63.3037C146.646 63.5641 146.365 63.6943 146 63.6943H138.703C138.266 63.6943 137.943 63.5693 137.734 63.3193C137.526 63.0693 137.422 62.7464 137.422 62.3506C137.422 61.9652 137.516 61.637 137.703 61.3662C137.901 61.085 138.203 60.9443 138.609 60.9443H140.547V48.3975L138.312 48.9443C138.292 48.9548 138.26 48.9652 138.219 48.9756C138.188 48.9756 138.146 48.9756 138.094 48.9756C137.781 48.9756 137.49 48.8506 137.219 48.6006C136.948 48.3402 136.812 48.0485 136.812 47.7256C136.812 47.3714 136.885 47.0902 137.031 46.8818C137.188 46.6631 137.411 46.5068 137.703 46.4131L142.062 45.1631C142.104 45.1631 142.13 45.1579 142.141 45.1475C142.151 45.137 142.177 45.1318 142.219 45.1318H142.312C142.531 45.1318 142.719 45.1995 142.875 45.335C143.031 45.46 143.109 45.637 143.109 45.8662L143.438 48.8193C143.969 47.861 144.859 47.0068 146.109 46.2568C147.37 45.5068 148.729 45.1318 150.188 45.1318C152.135 45.1318 153.682 45.7048 154.828 46.8506C155.974 47.9964 156.547 49.5485 156.547 51.5068V60.9443H158.5C158.896 60.9443 159.182 61.0902 159.359 61.3818C159.536 61.6631 159.625 61.9964 159.625 62.3818C159.625 62.7256 159.521 63.0329 159.312 63.3037C159.115 63.5641 158.833 63.6943 158.469 63.6943H150.859C150.422 63.6943 150.099 63.5693 149.891 63.3193C149.682 63.0693 149.578 62.7464 149.578 62.3506C149.578 61.9652 149.672 61.637 149.859 61.3662C150.057 61.085 150.359 60.9443 150.766 60.9443H153.391V51.7881C153.391 50.5485 153.073 49.5745 152.438 48.8662C151.812 48.1475 150.87 47.7881 149.609 47.7881ZM164.578 54.96C164.578 57.0016 165.214 58.5589 166.484 59.6318C167.766 60.6943 169.339 61.2256 171.203 61.2256C172.526 61.2256 173.562 60.9808 174.312 60.4912C175.073 59.9912 175.797 59.4235 176.484 58.7881C176.641 58.6527 176.807 58.5537 176.984 58.4912C177.161 58.4183 177.339 58.3818 177.516 58.3818C177.932 58.3818 178.286 58.512 178.578 58.7725C178.87 59.0225 179.016 59.361 179.016 59.7881C179.016 61.1214 178.047 62.1735 176.109 62.9443C174.182 63.7048 172.505 64.085 171.078 64.085C168.224 64.085 165.87 63.2412 164.016 61.5537C162.172 59.8558 161.25 57.5745 161.25 54.71C161.25 51.8766 162.099 49.5745 163.797 47.8037C165.495 46.0225 167.797 45.1318 170.703 45.1318C172.786 45.1318 174.688 45.8558 176.406 47.3037C178.125 48.7412 178.984 50.6006 178.984 52.8818C178.984 53.6631 178.74 54.1318 178.25 54.2881C177.771 54.4443 177.161 54.5589 176.422 54.6318L164.578 54.96ZM175.062 51.8818C175.062 50.3923 174.604 49.3402 173.688 48.7256C172.781 48.1006 171.786 47.7881 170.703 47.7881C168.87 47.7881 167.411 48.2412 166.328 49.1475C165.255 50.0537 164.651 51.2568 164.516 52.7568L173.906 52.5537C174.198 52.5433 174.464 52.4912 174.703 52.3975C174.943 52.2933 175.062 52.1214 175.062 51.8818Z" fill="#FFFFFF"/>
</svg>
