<svg width="27" height="18" viewBox="0 0 27 18" fill="none" xmlns="http://www.w3.org/2000/svg">
<path d="M25.2878 0.773438H18.8065C17.4156 0.773438 16.0559 1.10391 14.886 1.72734L13.5036 2.46094L12.1213 1.72734C10.9525 1.10403 9.59128 0.772823 8.20076 0.773438H1.71946C1.21807 0.773438 0.812988 1.10859 0.812988 1.52344V14.8359C0.812988 15.2508 1.21807 15.5859 1.71946 15.5859H8.20076C9.59163 15.5859 10.9513 15.9164 12.1213 16.5398L13.379 17.2102C13.4158 17.2289 13.4583 17.2406 13.5008 17.2406C13.5433 17.2406 13.5858 17.2313 13.6226 17.2102L14.8803 16.5398C16.0531 15.9164 17.4156 15.5859 18.8065 15.5859H25.2878C25.7892 15.5859 26.1943 15.2508 26.1943 14.8359V1.52344C26.1943 1.10859 25.7892 0.773438 25.2878 0.773438ZM8.20076 13.8984H2.85256V2.46094H8.20076C9.20355 2.46094 10.178 2.69766 11.0193 3.14531L12.4017 3.87891L12.5972 3.98438V14.8125C11.2488 14.2125 9.74176 13.8984 8.20076 13.8984ZM24.1547 13.8984H18.8065C17.2655 13.8984 15.7585 14.2125 14.4101 14.8125V3.98438L14.6056 3.87891L15.9879 3.14531C16.8293 2.69766 17.8037 2.46094 18.8065 2.46094H24.1547V13.8984ZM10.2432 5.46094H4.97994C4.86946 5.46094 4.77882 5.54063 4.77882 5.63672V6.69141C4.77882 6.7875 4.86946 6.86719 4.97994 6.86719H10.2403C10.3508 6.86719 10.4414 6.7875 10.4414 6.69141V5.63672C10.4443 5.54063 10.3536 5.46094 10.2432 5.46094ZM16.563 5.63672V6.69141C16.563 6.7875 16.6536 6.86719 16.7641 6.86719H22.0245C22.135 6.86719 22.2256 6.7875 22.2256 6.69141V5.63672C22.2256 5.54063 22.135 5.46094 22.0245 5.46094H16.7641C16.6536 5.46094 16.563 5.54063 16.563 5.63672ZM10.2432 8.74219H4.97994C4.86946 8.74219 4.77882 8.82188 4.77882 8.91797V9.97266C4.77882 10.0688 4.86946 10.1484 4.97994 10.1484H10.2403C10.3508 10.1484 10.4414 10.0688 10.4414 9.97266V8.91797C10.4443 8.82188 10.3536 8.74219 10.2432 8.74219ZM22.0273 8.74219H16.7641C16.6536 8.74219 16.563 8.82188 16.563 8.91797V9.97266C16.563 10.0688 16.6536 10.1484 16.7641 10.1484H22.0245C22.135 10.1484 22.2256 10.0688 22.2256 9.97266V8.91797C22.2285 8.82188 22.1378 8.74219 22.0273 8.74219Z" fill="white"/>
</svg>
