<svg width="40" height="40" viewBox="0 0 40 40" fill="none" xmlns="http://www.w3.org/2000/svg">
<path fill-rule="evenodd" clip-rule="evenodd" d="M11.6625 19.555L13.2125 11.815C13.5294 10.2484 14.3784 8.83976 15.6156 7.82785C16.8527 6.81594 18.4018 6.2631 20 6.2631C21.5983 6.2631 23.1473 6.81594 24.3845 7.82785C25.6216 8.83976 26.4706 10.2484 26.7875 11.815L28.3375 19.555C28.8001 21.8654 29.9351 23.9876 31.6 25.655L32.085 26.1375C32.2637 26.3164 32.3912 26.5397 32.4545 26.7845C32.5177 27.0293 32.5144 27.2865 32.4448 27.5295C32.3751 27.7726 32.2418 27.9926 32.0585 28.1667C31.8753 28.3409 31.6488 28.4628 31.4025 28.52L29.35 28.995C23.1976 30.415 16.8025 30.415 10.65 28.995L8.60001 28.52C8.35355 28.4632 8.12678 28.3414 7.94322 28.1674C7.75967 27.9934 7.62601 27.7735 7.55612 27.5304C7.48623 27.2873 7.48266 27.03 7.54577 26.785C7.60887 26.5401 7.73636 26.3165 7.91501 26.1375L8.40001 25.655C10.0659 23.9883 11.2011 21.8658 11.6625 19.555ZM7.98751 18.82L9.53501 11.08C10.0216 8.66303 11.3299 6.48903 13.2375 4.92719C15.1451 3.36535 17.5346 2.51196 20 2.51196C22.4655 2.51196 24.8549 3.36535 26.7625 4.92719C28.6702 6.48903 29.9784 8.66303 30.465 11.08L32.015 18.82C32.33 20.405 33.11 21.86 34.2525 23.0025L34.7375 23.4875C35.3901 24.1395 35.8562 24.9543 36.0873 25.8474C36.3185 26.7405 36.3062 27.6791 36.0518 28.5659C35.7974 29.4526 35.3101 30.255 34.6407 30.8897C33.9712 31.5244 33.144 31.9682 32.245 32.175L30.1925 32.65C28.44 33.05 26.6675 33.35 24.8925 33.545C24.6548 34.666 24.0392 35.6714 23.1488 36.3928C22.2584 37.1142 21.1472 37.5078 20.0013 37.5078C18.8553 37.5078 17.7441 37.1142 16.8537 36.3928C15.9633 35.6714 15.3477 34.666 15.11 33.545C13.3272 33.3509 11.5574 33.0512 9.81001 32.6475L7.75501 32.1725C6.85699 31.9647 6.03089 31.5205 5.36236 30.8859C4.69383 30.2513 4.20721 29.4495 3.95294 28.5635C3.69867 27.6775 3.68602 26.7396 3.91628 25.8471C4.14655 24.9546 4.61135 24.1399 5.26251 23.4875L5.75001 23C6.89251 21.8575 7.67251 20.4 7.98751 18.8175V18.82Z" fill="#2EA7F4"/>
</svg>
