<svg width="25" height="24" viewBox="0 0 25 24" fill="none" xmlns="http://www.w3.org/2000/svg">
<path d="M21.25 7C23.325 7 25 8.675 25 10.75V18.25H20V23.25H5V18.25H0V10.75C0 8.675 1.675 7 3.75 7H5V0.75H20V7H21.25ZM7.5 3.25V7H17.5V3.25H7.5ZM17.5 20.75V15.75H7.5V20.75H17.5ZM20 15.75H22.5V10.75C22.5 10.0625 21.9375 9.5 21.25 9.5H3.75C3.0625 9.5 2.5 10.0625 2.5 10.75V15.75H5V13.25H20V15.75ZM21.25 11.375C21.25 12.0625 20.6875 12.625 20 12.625C19.3125 12.625 18.75 12.0625 18.75 11.375C18.75 10.6875 19.3125 10.125 20 10.125C20.6875 10.125 21.25 10.6875 21.25 11.375Z" fill="#068EE7"/>
</svg>
