<svg width="24" height="25" viewBox="0 0 24 25" fill="none" xmlns="http://www.w3.org/2000/svg">
<path d="M10 20.5044H6V4.50439H13V9.50439H18V12.6044L20 10.6044V8.50439L14 2.50439H6C4.9 2.50439 4 3.40439 4 4.50439V20.5044C4 21.6044 4.9 22.5044 6 22.5044H10V20.5044ZM20.2 13.5044C20.3 13.5044 20.5 13.6044 20.6 13.7044L21.9 15.0044C22.1 15.2044 22.1 15.6044 21.9 15.8044L20.9 16.8044L18.8 14.7044L19.8 13.7044C19.9 13.6044 20 13.5044 20.2 13.5044ZM20.2 17.4044L14.1 23.5044H12V21.4044L18.1 15.3044L20.2 17.4044Z" fill="white" fill-opacity="0.78"/>
</svg>
