<svg width="19" height="20" viewBox="0 0 19 20" fill="none" xmlns="http://www.w3.org/2000/svg">
<path d="M4 5.5H3C2.46957 5.5 1.96086 5.71071 1.58579 6.08579C1.21071 6.46086 1 6.96957 1 7.5V16.5C1 17.0304 1.21071 17.5391 1.58579 17.9142C1.96086 18.2893 2.46957 18.5 3 18.5H12C12.5304 18.5 13.0391 18.2893 13.4142 17.9142C13.7893 17.5391 14 17.0304 14 16.5V15.5" stroke="#98A0A4" stroke-width="2" stroke-linecap="round" stroke-linejoin="round"/>
<path d="M13 3.50011L16 6.50011M17.385 5.08511C17.7788 4.69126 18.0001 4.15709 18.0001 3.60011C18.0001 3.04312 17.7788 2.50895 17.385 2.11511C16.9912 1.72126 16.457 1.5 15.9 1.5C15.343 1.5 14.8088 1.72126 14.415 2.11511L6 10.5001V13.5001H9L17.385 5.08511Z" stroke="#98A0A4" stroke-width="2" stroke-linecap="round" stroke-linejoin="round"/>
</svg>
