<svg width="23" height="24" viewBox="0 0 23 24" fill="none" xmlns="http://www.w3.org/2000/svg">
<path d="M20 0.75H2.5C1.125 0.75 0 1.875 0 3.25V20.75C0 22.125 1.125 23.25 2.5 23.25H20C21.375 23.25 22.5 22.125 22.5 20.75V3.25C22.5 1.875 21.375 0.75 20 0.75ZM8.125 11.375C8.125 12.375 7.25 13.25 6.25 13.25H5V15.75H3.125V8.25H6.25C7.25 8.25 8.125 9.125 8.125 10.125V11.375ZM14.375 13.875C14.375 14.875 13.5 15.75 12.5 15.75H9.375V8.25H12.5C13.5 8.25 14.375 9.125 14.375 10.125V13.875ZM19.375 10.125H17.5V11.375H19.375V13.25H17.5V15.75H15.625V8.25H19.375V10.125ZM11.25 10.125H12.5V13.875H11.25V10.125ZM5 10.125H6.25V11.375H5V10.125Z" fill="#009AFF"/>
</svg>
