<svg width="24" height="24" viewBox="0 0 24 24" fill="none" xmlns="http://www.w3.org/2000/svg">
<path d="M23.04 2.16H18V0.24C18 0.108 17.892 0 17.76 0H16.08C15.948 0 15.84 0.108 15.84 0.24V2.16H8.16V0.24C8.16 0.108 8.052 0 7.92 0H6.24C6.108 0 6 0.108 6 0.24V2.16H0.96C0.429 2.16 0 2.589 0 3.12V23.04C0 23.571 0.429 24 0.96 24H23.04C23.571 24 24 23.571 24 23.04V3.12C24 2.589 23.571 2.16 23.04 2.16ZM21.84 21.84H2.16V10.44H21.84V21.84ZM2.16 8.4V4.32H6V5.76C6 5.892 6.108 6 6.24 6H7.92C8.052 6 8.16 5.892 8.16 5.76V4.32H15.84V5.76C15.84 5.892 15.948 6 16.08 6H17.76C17.892 6 18 5.892 18 5.76V4.32H21.84V8.4H2.16Z" fill="white"/>
</svg>
