<svg width="24" height="25" viewBox="0 0 24 25" fill="none" xmlns="http://www.w3.org/2000/svg">
<path d="M17 18.5044C17.56 18.5044 18 18.9444 18 19.5044C18 20.0644 17.56 20.5044 17 20.5044C16.44 20.5044 16 20.0644 16 19.5044C16 18.9444 16.44 18.5044 17 18.5044ZM17 15.5044C14.27 15.5044 11.94 17.1644 11 19.5044C11.94 21.8444 14.27 23.5044 17 23.5044C19.73 23.5044 22.06 21.8444 23 19.5044C22.06 17.1644 19.73 15.5044 17 15.5044ZM17 22.0044C16.337 22.0044 15.7011 21.741 15.2322 21.2722C14.7634 20.8033 14.5 20.1674 14.5 19.5044C14.5 18.8414 14.7634 18.2055 15.2322 17.7366C15.7011 17.2678 16.337 17.0044 17 17.0044C17.663 17.0044 18.2989 17.2678 18.7678 17.7366C19.2366 18.2055 19.5 18.8414 19.5 19.5044C19.5 20.1674 19.2366 20.8033 18.7678 21.2722C18.2989 21.741 17.663 22.0044 17 22.0044ZM9.27 20.5044H6V4.50439H13V9.50439H18V13.5744C18.7 13.6544 19.36 13.8244 20 14.0644V8.50439L14 2.50439H6C5.46957 2.50439 4.96086 2.71511 4.58579 3.09018C4.21071 3.46525 4 3.97396 4 4.50439V20.5044C4 21.0348 4.21071 21.5435 4.58579 21.9186C4.96086 22.2937 5.46957 22.5044 6 22.5044H10.5C9.99562 21.9006 9.58132 21.2269 9.27 20.5044Z" fill="#2EA7F4"/>
</svg>
