<svg width="21" height="20" viewBox="0 0 21 20" fill="none" xmlns="http://www.w3.org/2000/svg">
<path d="M18.5001 8C18.5001 7.73478 18.3947 7.48043 18.2072 7.29289C18.0197 7.10536 17.7653 7 17.5001 7C17.2349 7 16.9805 7.10536 16.793 7.29289C16.6054 7.48043 16.5001 7.73478 16.5001 8H18.5001ZM4.50008 8C4.50008 7.73478 4.39472 7.48043 4.20719 7.29289C4.01965 7.10536 3.7653 7 3.50008 7C3.23486 7 2.98051 7.10536 2.79297 7.29289C2.60544 7.48043 2.50008 7.73478 2.50008 8H4.50008ZM18.7931 10.707C18.9817 10.8892 19.2343 10.99 19.4965 10.9877C19.7587 10.9854 20.0095 10.8802 20.1949 10.6948C20.3803 10.5094 20.4855 10.2586 20.4878 9.9964C20.49 9.7342 20.3892 9.4816 20.2071 9.293L18.7931 10.707ZM10.5001 1L11.2071 0.293C11.0196 0.105529 10.7652 0.000213623 10.5001 0.000213623C10.2349 0.000213623 9.98061 0.105529 9.79308 0.293L10.5001 1ZM0.793081 9.293C0.697571 9.38525 0.621389 9.49559 0.56898 9.6176C0.516571 9.7396 0.488985 9.87082 0.487831 10.0036C0.486677 10.1364 0.511979 10.2681 0.56226 10.391C0.61254 10.5139 0.686794 10.6255 0.780686 10.7194C0.874579 10.8133 0.986231 10.8875 1.10913 10.9378C1.23202 10.9881 1.3637 11.0134 1.49648 11.0123C1.62926 11.0111 1.76048 10.9835 1.88249 10.9311C2.00449 10.8787 2.11483 10.8025 2.20708 10.707L0.793081 9.293ZM5.50008 20H15.5001V18H5.50008V20ZM18.5001 17V8H16.5001V17H18.5001ZM4.50008 17V8H2.50008V17H4.50008ZM20.2071 9.293L11.2071 0.293L9.79308 1.707L18.7931 10.707L20.2071 9.293ZM9.79308 0.293L0.793081 9.293L2.20708 10.707L11.2071 1.707L9.79308 0.293ZM15.5001 20C16.2957 20 17.0588 19.6839 17.6214 19.1213C18.184 18.5587 18.5001 17.7956 18.5001 17H16.5001C16.5001 17.2652 16.3947 17.5196 16.2072 17.7071C16.0197 17.8946 15.7653 18 15.5001 18V20ZM5.50008 18C5.23486 18 4.98051 17.8946 4.79297 17.7071C4.60544 17.5196 4.50008 17.2652 4.50008 17H2.50008C2.50008 17.7956 2.81615 18.5587 3.37876 19.1213C3.94137 19.6839 4.70443 20 5.50008 20V18Z" fill="#2B81B8"/>
</svg>
