<svg width="25" height="24" viewBox="0 0 25 24" fill="none" xmlns="http://www.w3.org/2000/svg">
<path d="M21.1709 5.57906L17.4209 1.82906C17.3164 1.72462 17.1923 1.64181 17.0557 1.58535C16.9191 1.52889 16.7728 1.49988 16.625 1.5H9.125C8.62772 1.5 8.15081 1.69754 7.79917 2.04918C7.44754 2.40081 7.25 2.87772 7.25 3.375V5.25H5.75C5.25272 5.25 4.77581 5.44754 4.42417 5.79918C4.07254 6.15081 3.875 6.62772 3.875 7.125V20.25C3.875 20.7473 4.07254 21.2242 4.42417 21.5758C4.77581 21.9275 5.25272 22.125 5.75 22.125H15.875C16.3723 22.125 16.8492 21.9275 17.2008 21.5758C17.5525 21.2242 17.75 20.7473 17.75 20.25V18.375H19.625C20.1223 18.375 20.5992 18.1775 20.9508 17.8258C21.3025 17.4742 21.5 16.9973 21.5 16.5V6.375C21.5001 6.22722 21.4711 6.08086 21.4147 5.94429C21.3582 5.80772 21.2754 5.68362 21.1709 5.57906ZM15.5 19.875H6.125V7.5H12.4062L15.5 10.5938V19.875ZM19.25 16.125H17.75V10.125C17.7501 9.97722 17.7211 9.83086 17.6647 9.69429C17.6082 9.55772 17.5254 9.43362 17.4209 9.32906L13.6709 5.57906C13.5664 5.47462 13.4423 5.39181 13.3057 5.33535C13.1691 5.27889 13.0228 5.24988 12.875 5.25H9.5V3.75H16.1562L19.25 6.84375V16.125ZM14 13.5C14 13.7984 13.8815 14.0845 13.6705 14.2955C13.4595 14.5065 13.1734 14.625 12.875 14.625H8.75C8.45163 14.625 8.16548 14.5065 7.9545 14.2955C7.74353 14.0845 7.625 13.7984 7.625 13.5C7.625 13.2016 7.74353 12.9155 7.9545 12.7045C8.16548 12.4935 8.45163 12.375 8.75 12.375H12.875C13.1734 12.375 13.4595 12.4935 13.6705 12.7045C13.8815 12.9155 14 13.2016 14 13.5ZM14 17.25C14 17.5484 13.8815 17.8345 13.6705 18.0455C13.4595 18.2565 13.1734 18.375 12.875 18.375H8.75C8.45163 18.375 8.16548 18.2565 7.9545 18.0455C7.74353 17.8345 7.625 17.5484 7.625 17.25C7.625 16.9516 7.74353 16.6655 7.9545 16.4545C8.16548 16.2435 8.45163 16.125 8.75 16.125H12.875C13.1734 16.125 13.4595 16.2435 13.6705 16.4545C13.8815 16.6655 14 16.9516 14 17.25Z" fill="#2B81B8" fill-opacity="0.81"/>
</svg>
