<svg width="25" height="24" viewBox="0 0 25 24" fill="none" xmlns="http://www.w3.org/2000/svg">
<g clip-path="url(#clip0_661_16)">
<path d="M12.2357 14.7131C13.1779 13.9211 13.8538 12.8585 14.1716 11.6693C14.4894 10.4802 14.4338 9.22208 14.0124 8.0656C13.5909 6.90913 12.8239 5.91027 11.8155 5.20447C10.8071 4.49868 9.60597 4.12012 8.37509 4.12012C7.1442 4.12012 5.9431 4.49868 4.93467 5.20447C3.92624 5.91027 3.15928 6.90913 2.7378 8.0656C2.31632 9.22208 2.26072 10.4802 2.57854 11.6693C2.89636 12.8585 3.57222 13.9211 4.51446 14.7131C3.04313 15.3784 1.76807 16.4116 0.812273 17.7131C0.635738 17.9537 0.561996 18.2545 0.607268 18.5494C0.652541 18.8444 0.813119 19.1092 1.05368 19.2858C1.29424 19.4623 1.59507 19.536 1.89 19.4908C2.18493 19.4455 2.4498 19.2849 2.62634 19.0444C3.28797 18.1407 4.1533 17.4058 5.15212 16.8992C6.15095 16.3926 7.25513 16.1286 8.37509 16.1286C9.49504 16.1286 10.5992 16.3926 11.598 16.8992C12.5969 17.4058 13.4622 18.1407 14.1238 19.0444C14.3004 19.285 14.5653 19.4457 14.8603 19.4911C15.1553 19.5365 15.4563 19.4628 15.697 19.2862C15.9376 19.1097 16.0983 18.8448 16.1437 18.5498C16.1891 18.2547 16.1154 17.9538 15.9388 17.7131C14.9825 16.4118 13.7072 15.3786 12.2357 14.7131ZM4.62509 10.125C4.62509 9.3833 4.84502 8.65828 5.25707 8.0416C5.66913 7.42491 6.2548 6.94426 6.94002 6.66044C7.62525 6.37661 8.37925 6.30234 9.10667 6.44704C9.8341 6.59173 10.5023 6.94889 11.0267 7.47333C11.5512 7.99778 11.9083 8.66597 12.053 9.3934C12.1977 10.1208 12.1235 10.8748 11.8396 11.56C11.5558 12.2453 11.0752 12.8309 10.4585 13.243C9.84179 13.6551 9.11677 13.875 8.37509 13.875C7.38052 13.875 6.4267 13.4799 5.72343 12.7766C5.02017 12.0734 4.62509 11.1195 4.62509 10.125ZM23.947 19.2815C23.8279 19.3691 23.6927 19.4323 23.5492 19.4675C23.4056 19.5028 23.2566 19.5094 23.1105 19.487C22.9644 19.4646 22.8241 19.4137 22.6977 19.3371C22.5713 19.2605 22.4613 19.1598 22.3738 19.0406C21.7106 18.1387 20.8449 17.4051 19.8464 16.8987C18.848 16.3923 17.7446 16.1273 16.6251 16.125C16.3267 16.125 16.0406 16.0065 15.8296 15.7955C15.6186 15.5845 15.5001 15.2984 15.5001 15C15.5001 14.7016 15.6186 14.4155 15.8296 14.2045C16.0406 13.9935 16.3267 13.875 16.6251 13.875C17.1772 13.8743 17.7224 13.7518 18.2217 13.516C18.721 13.2803 19.1621 12.9372 19.5135 12.5113C19.8648 12.0853 20.1178 11.5871 20.2543 11.052C20.3908 10.517 20.4075 9.95848 20.3031 9.41628C20.1988 8.87408 19.976 8.36161 19.6506 7.91548C19.3253 7.46935 18.9055 7.10056 18.4211 6.83546C17.9368 6.57037 17.3999 6.4155 16.8487 6.38193C16.2976 6.34835 15.7458 6.43689 15.2329 6.64123C15.0955 6.6975 14.9483 6.726 14.7998 6.72511C14.6514 6.72421 14.5045 6.69394 14.3678 6.63603C14.2311 6.57811 14.1072 6.49371 14.0033 6.38769C13.8993 6.28166 13.8174 6.15611 13.7622 6.01827C13.707 5.88042 13.6797 5.73302 13.6817 5.58456C13.6838 5.4361 13.7152 5.28951 13.7742 5.15325C13.8331 5.01699 13.9185 4.89375 14.0254 4.79064C14.1322 4.68753 14.2584 4.60659 14.3966 4.55248C15.7207 4.02237 17.1903 3.98124 18.5419 4.43647C19.8935 4.8917 21.0388 5.81351 21.7723 7.03663C22.5059 8.25974 22.7798 9.70417 22.5448 11.1109C22.3099 12.5177 21.5816 13.7947 20.4904 14.7131C21.9617 15.3784 23.2368 16.4116 24.1926 17.7131C24.3674 17.9539 24.4396 18.2541 24.3936 18.548C24.3476 18.842 24.187 19.1057 23.947 19.2815Z" fill="white"/>
</g>
<defs>
<clipPath id="clip0_661_16">
<rect width="24" height="24" fill="white" transform="translate(0.5)"/>
</clipPath>
</defs>
</svg>