<svg width="25" height="24" viewBox="0 0 25 24" fill="none" xmlns="http://www.w3.org/2000/svg">
<path d="M14.75 7.5H20V9H14.75V7.5ZM14.75 11.25H20V12.75H14.75V11.25ZM14.75 15H20V16.5H14.75V15ZM5 7.5H10.25V9H5V7.5ZM5 11.25H10.25V12.75H5V11.25ZM5 15H10.25V16.5H5V15Z" fill="#2B81B8" fill-opacity="0.81"/>
<path d="M21.5 3.75H3.5C3.1023 3.7504 2.721 3.90856 2.43978 4.18978C2.15856 4.471 2.0004 4.8523 2 5.25V18.75C2.0004 19.1477 2.15856 19.529 2.43978 19.8102C2.721 20.0914 3.1023 20.2496 3.5 20.25H21.5C21.8977 20.2496 22.279 20.0914 22.5602 19.8102C22.8414 19.529 22.9996 19.1477 23 18.75V5.25C22.9996 4.8523 22.8414 4.471 22.5602 4.18978C22.279 3.90856 21.8977 3.7504 21.5 3.75ZM3.5 5.25H11.75V18.75H3.5V5.25ZM13.25 18.75V5.25H21.5V18.75H13.25Z" fill="#2B81B8" fill-opacity="0.81"/>
</svg>
