<svg width="18" height="18" viewBox="0 0 18 18" fill="none" xmlns="http://www.w3.org/2000/svg">
<path fill-rule="evenodd" clip-rule="evenodd" d="M15.2715 2.53304L2.67946 7.08604L6.87446 9.51404L10.5735 5.81404C10.7611 5.62653 11.0155 5.52124 11.2808 5.52134C11.5461 5.52143 11.8005 5.6269 11.988 5.81454C12.1755 6.00218 12.2808 6.25662 12.2807 6.52189C12.2806 6.78716 12.1751 7.04153 11.9875 7.22904L8.28746 10.929L10.7175 15.123L15.2715 2.53304ZM15.5945 0.289039C16.7895 -0.143961 17.9475 1.01404 17.5145 2.20904L12.2325 16.814C11.7985 18.012 10.1625 18.158 9.52346 17.055L6.30646 11.497L0.748462 8.28004C-0.354538 7.64104 -0.208537 6.00504 0.989463 5.57104L15.5945 0.289039Z" fill="#1A1B1F" fill-opacity="0.92"/>
</svg>
