<svg width="35" height="35" viewBox="0 0 35 35" fill="none" xmlns="http://www.w3.org/2000/svg">
<path fill-rule="evenodd" clip-rule="evenodd" d="M31.7188 3.28125C32.0088 3.28125 32.287 3.39648 32.4922 3.6016C32.6973 3.80672 32.8125 4.08492 32.8125 4.375V14.875C32.8125 15.5932 32.671 16.3043 32.3962 16.9678C32.1214 17.6313 31.7186 18.2342 31.2107 18.742C30.7029 19.2498 30.1001 19.6526 29.4366 19.9275C28.7731 20.2023 28.0619 20.3438 27.3438 20.3438H5.92156L13.2431 27.6631C13.4485 27.8685 13.5639 28.1471 13.5639 28.4375C13.5639 28.7279 13.4485 29.0065 13.2431 29.2119C13.0377 29.4173 12.7592 29.5326 12.4688 29.5326C12.1783 29.5326 11.8998 29.4173 11.6944 29.2119L2.50688 20.0244C2.40502 19.9228 2.32421 19.8021 2.26907 19.6692C2.21393 19.5363 2.18555 19.3939 2.18555 19.25C2.18555 19.1061 2.21393 18.9637 2.26907 18.8308C2.32421 18.6979 2.40502 18.5772 2.50688 18.4756L11.2569 9.72563C11.4623 9.52025 11.7408 9.40487 12.0313 9.40487C12.3217 9.40487 12.6003 9.52025 12.8056 9.72563C13.011 9.931 13.1264 10.2096 13.1264 10.5C13.1264 10.7904 13.011 11.069 12.8056 11.2744L5.92156 18.1562H27.3438C28.214 18.1562 29.0486 17.8105 29.6639 17.1952C30.2793 16.5798 30.625 15.7452 30.625 14.875V4.375C30.625 4.08492 30.7402 3.80672 30.9454 3.6016C31.1505 3.39648 31.4287 3.28125 31.7188 3.28125Z" fill="#1A1B1F"/>
</svg>
