<svg width="25" height="24" viewBox="0 0 25 24" fill="none" xmlns="http://www.w3.org/2000/svg">
<path d="M12.5 15L15.5 12M15.5 12L12.5 9M15.5 12H4.5M9.5 7.249V7.2C9.5 6.08 9.5 5.52 9.718 5.092C9.91 4.715 10.215 4.41 10.592 4.218C11.02 4 11.58 4 12.7 4H17.3C18.42 4 18.98 4 19.407 4.218C19.784 4.41 20.09 4.715 20.282 5.092C20.5 5.519 20.5 6.079 20.5 7.197V16.804C20.5 17.922 20.5 18.481 20.282 18.908C20.0899 19.2844 19.7836 19.5903 19.407 19.782C18.98 20 18.421 20 17.303 20H12.697C11.579 20 11.019 20 10.592 19.782C10.2157 19.5903 9.90974 19.2843 9.718 18.908C9.5 18.48 9.5 17.92 9.5 16.8V16.75" stroke="#2B81B8" stroke-width="2" stroke-linecap="round" stroke-linejoin="round"/>
</svg>
