<svg width="12" height="19" viewBox="0 0 12 19" fill="none" xmlns="http://www.w3.org/2000/svg">
<path d="M10.29 11.7943L6 16.0943L1.71 11.7943C1.5217 11.606 1.2663 11.5002 1 11.5002C0.733701 11.5002 0.478306 11.606 0.290002 11.7943C0.101699 11.9826 -0.00408936 12.238 -0.00408936 12.5043C-0.00408936 12.7706 0.101699 13.026 0.290002 13.2143L5.29 18.2143C5.38297 18.3081 5.49357 18.3825 5.61543 18.4332C5.73728 18.484 5.86799 18.5101 6 18.5101C6.13201 18.5101 6.26272 18.484 6.38458 18.4332C6.50644 18.3825 6.61704 18.3081 6.71 18.2143L11.71 13.2143C11.8032 13.1211 11.8772 13.0104 11.9277 12.8886C11.9781 12.7668 12.0041 12.6362 12.0041 12.5043C12.0041 12.3725 11.9781 12.2419 11.9277 12.1201C11.8772 11.9983 11.8032 11.8876 11.71 11.7943C11.6168 11.7011 11.5061 11.6271 11.3843 11.5767C11.2624 11.5262 11.1319 11.5002 11 11.5002C10.8681 11.5002 10.7376 11.5262 10.6158 11.5767C10.4939 11.6271 10.3832 11.7011 10.29 11.7943ZM1.71 7.21433L6 2.91433L10.29 7.21433C10.383 7.30806 10.4936 7.38246 10.6154 7.43322C10.7373 7.48399 10.868 7.51013 11 7.51013C11.132 7.51013 11.2627 7.48399 11.3846 7.43322C11.5064 7.38246 11.617 7.30806 11.71 7.21433C11.8037 7.12137 11.8781 7.01077 11.9289 6.88891C11.9797 6.76705 12.0058 6.63635 12.0058 6.50433C12.0058 6.37232 11.9797 6.24162 11.9289 6.11976C11.8781 5.9979 11.8037 5.8873 11.71 5.79433L6.71 0.794333C6.61704 0.700605 6.50644 0.626211 6.38458 0.575442C6.26272 0.524673 6.13201 0.498535 6 0.498535C5.86799 0.498535 5.73728 0.524673 5.61543 0.575442C5.49357 0.626211 5.38297 0.700605 5.29 0.794333L0.290002 5.79433C0.196764 5.88757 0.122803 5.99826 0.0723429 6.12008C0.0218825 6.24191 -0.00408936 6.37247 -0.00408936 6.50433C-0.00408936 6.77064 0.101699 7.02603 0.290002 7.21433C0.478306 7.40264 0.733701 7.50842 1 7.50842C1.2663 7.50842 1.5217 7.40264 1.71 7.21433Z" fill="#242529"/>
</svg>

